
		<svg xmlns="http://www.w3.org/2000/svg" xmlns:xlink="http://www.w3.org/1999/xlink" version="1.1" width="3219.4988061470117" height="1482.299442243405">
			
			<g transform="scale(10.974940307350577) translate(10, 10)">
				<defs id="SvgjsDefs1207"></defs><g id="SvgjsG1208" featureKey="Q6UacQ" fill="#ffffff" transform="matrix(1,0,0,1,0,0)"></g><g id="SvgjsG1209" featureKey="I23113" fill="#681f79" transform="matrix(0.9024431223307188,0,0,0.9024431223307188,115.00724656208995,10.009114144006235)">   <title xmlns="http://www.w3.org/2000/svg">assets</title>   <path xmlns="http://www.w3.org/2000/svg" d="M70.52,27.63A24.56,24.56,0,0,0,53.86,65a4.31,4.31,0,0,1,.61,3.35L52.4,76.62a1.35,1.35,0,0,0,1.89,1.54l7.33-3.56a4.32,4.32,0,0,1,3.57,0A24.59,24.59,0,1,0,70.52,27.63Z" transform="translate(-50.05 -27.3)"></path> </g><g id="SvgjsG1210" featureKey="kAjhuV" fill="#ffffff" transform="matrix(1.1637126212694704,0,0,1.1637126212694704,129.99999930637324,17.902148350506334)"><path d="M10.3 7.699999999999999 c-0.86 -0.5 -1.82 -0.74 -2.78 -0.74 c-3.14 0 -5.88 2.56 -5.88 5.68 c0 3.08 2.54 5.72 5.62 5.72 c1.12 0 2.2 -0.44 3.2 -0.94 l0 -3.5 c0 -0.28 0.18 -0.48 0.46 -0.48 l0.7 0 c0.28 0 0.48 0.2 0.48 0.48 l0 4.18 c0 0.24 -0.1 0.32 -0.32 0.48 c-1.32 0.92 -2.82 1.42 -4.44 1.42 c-2.68 0 -5.14 -1.5 -6.44 -3.82 c0 0.02 0.18 0.34 0.18 0.32 c-0.7 -1.16 -1.08 -2.5 -1.08 -3.88 c0 -4 3.3 -7.38 7.38 -7.38 c1.54 0 3.4 0.52 4.56 1.68 c0.1 0.1 0.14 0.22 0.14 0.36 c0 0.44 -0.54 0.92 -0.84 0.92 c-0.1 0 -0.2 -0.04 -0.94 -0.5 z"></path></g><g id="SvgjsG1211" featureKey="25PBju" fill="#681f79" transform="matrix(2.050625641025641,0,0,2.050625641025641,-2.002499566806891,55.654034765625)"><path d="M12.207 23.437495 q-1.689453125 0.64453125 -3.642578125 0.64453125 q-7.587890625 0 -7.587890625 -7.275390625 q0 -6.884765625 7.32421875 -6.884765625 q2.099609375 0 3.90625 0.5859375 l0 1.5625 q-1.806640625 -0.68359375 -3.7109375 -0.68359375 q-5.712890625 0 -5.712890625 5.419921875 q0 5.810546875 5.625 5.810546875 q0.8984375 0 1.9921875 -0.234375 l0 -4.7461 l1.8066 0 l0 5.8008 z M24.316390625 10.019375 l0 1.4648 l-7.3242 0 l0 4.6875 l6.9824 0 l0 1.4648 l-6.9824 0 l0 4.8828 l7.4707 0 l0 1.4648 l-9.2773 0 l0 -13.965 l9.1309 0 z M27.197309375 23.984375 l0 -13.965 l1.8066 0 l8.5449 11.25 l0 -11.25 l1.709 0 l0 13.965 l-1.8066 0 l-8.5449 -11.348 l0 11.348 l-1.709 0 z M51.70896875 10.019375 l0 1.4648 l-7.3242 0 l0 4.6875 l6.9824 0 l0 1.4648 l-6.9824 0 l0 4.8828 l7.4707 0 l0 1.4648 l-9.2773 0 l0 -13.965 l9.1309 0 z M54.3944875 23.496095 l0 -1.6602 q2.197265625 0.78125 4.74609375 0.78125 q3.603515625 0 3.603515625 -2.63671875 q0 -2.24609375 -2.65625 -2.24609375 l-1.7969 0 q-4.384765625 0 -4.384765625 -3.80859375 q0 -4.00390625 5.615234375 -4.00390625 q2.44140625 0 4.541015625 0.5859375 l0 1.6602 q-2.099609375 -0.78125 -4.541015625 -0.78125 q-3.80859375 0 -3.80859375 2.5390625 q0 2.24609375 2.578125 2.24609375 l1.7969 0 q4.462890625 0 4.462890625 3.80859375 q0 4.1015625 -5.41015625 4.1015625 q-2.548828125 0 -4.74609375 -0.5859375 z M69.28714375 10.019375 l0 13.965 l-1.8066 0 l0 -13.965 l1.8066 0 z M72.705034375 23.496095 l0 -1.6602 q2.197265625 0.78125 4.74609375 0.78125 q3.603515625 0 3.603515625 -2.63671875 q0 -2.24609375 -2.65625 -2.24609375 l-1.7969 0 q-4.384765625 0 -4.384765625 -3.80859375 q0 -4.00390625 5.615234375 -4.00390625 q2.44140625 0 4.541015625 0.5859375 l0 1.6602 q-2.099609375 -0.78125 -4.541015625 -0.78125 q-3.80859375 0 -3.80859375 2.5390625 q0 2.24609375 2.578125 2.24609375 l1.7969 0 q4.462890625 0 4.462890625 3.80859375 q0 4.1015625 -5.41015625 4.1015625 q-2.548828125 0 -4.74609375 -0.5859375 z  M90.380903125 23.984375 l0 -13.965 l1.8066 0 l8.5449 11.25 l0 -11.25 l1.709 0 l0 13.965 l-1.8066 0 l-8.5449 -11.348 l0 11.348 l-1.709 0 z M105.7617625 23.984375 l0 -13.965 l2.2949 0 l5.127 11.65 l5.0293 -11.65 l2.1973 0 l0 13.965 l-1.6113 0 l0 -11.455 l-4.9609 11.455 l-1.4258 0 l-5.0391 -11.455 l0 11.455 l-1.6113 0 z M134.2773125 23.496095 q-1.806640625 0.5859375 -3.90625 0.5859375 q-7.32421875 0 -7.32421875 -7.275390625 q0 -6.884765625 7.32421875 -6.884765625 q2.099609375 0 3.90625 0.5859375 l0 1.5625 q-1.806640625 -0.68359375 -3.7109375 -0.68359375 q-5.712890625 0 -5.712890625 5.419921875 q0 5.810546875 5.712890625 5.810546875 q1.904296875 0 3.7109375 -0.68359375 l0 1.5625 z"></path></g>
			</g>
		</svg>
	